<?xml version="1.0" encoding="UTF-8" standalone="no"?>
<!-- Created with Inkscape (http://www.inkscape.org/) -->
<svg
   xmlns:svg="http://www.w3.org/2000/svg"
   xmlns="http://www.w3.org/2000/svg"
   xmlns:xlink="http://www.w3.org/1999/xlink"
   version="1.0"
   width="374.39999"
   height="341.82001"
   id="svg2">
  <defs
     id="defs4">
    <linearGradient
       id="linearGradient3183">
      <stop
         id="stop3185"
         style="stop-color:#ce0000;stop-opacity:1"
         offset="0" />
      <stop
         id="stop3187"
         style="stop-color:#ffdcdc;stop-opacity:1"
         offset="1" />
    </linearGradient>
    <linearGradient
       id="linearGradient3175">
      <stop
         id="stop3177"
         style="stop-color:#000000;stop-opacity:1"
         offset="0" />
      <stop
         id="stop3179"
         style="stop-color:#c1b9b9;stop-opacity:1"
         offset="1" />
    </linearGradient>
    <linearGradient
       x1="266.68027"
       y1="325.05237"
       x2="316.17773"
       y2="293.73764"
       id="linearGradient3171"
       xlink:href="#linearGradient3183"
       gradientUnits="userSpaceOnUse" />
    <linearGradient
       x1="584.8783"
       y1="317.98129"
       x2="614.17273"
       y2="288.68686"
       id="linearGradient6666"
       xlink:href="#linearGradient3175"
       gradientUnits="userSpaceOnUse" />
    <linearGradient
       x1="266.68027"
       y1="325.05237"
       x2="316.17773"
       y2="293.73764"
       id="linearGradient6704"
       xlink:href="#linearGradient3183"
       gradientUnits="userSpaceOnUse" />
    <linearGradient
       x1="584.8783"
       y1="317.98129"
       x2="614.17273"
       y2="288.68686"
       id="linearGradient6721"
       xlink:href="#linearGradient3175"
       gradientUnits="userSpaceOnUse" />
    <marker
       refX="0"
       refY="0"
       orient="auto"
       id="Arrow2MendR"
       style="overflow:visible">
      <path
         d="M 8.7185878,4.0337352 L -2.2072895,0.016013256 L 8.7185884,-4.0017078 C 6.97309,-1.6296469 6.9831476,1.6157441 8.7185878,4.0337352 z"
         transform="scale(-0.6,-0.6)"
         id="path12094"
         style="font-size:12px;fill:#d21010;fill-rule:evenodd;stroke:#d21010;stroke-width:0.625;stroke-linejoin:round" />
    </marker>
    <marker
       refX="0"
       refY="0"
       orient="auto"
       id="Arrow2MendN"
       style="overflow:visible">
      <path
         d="M 8.7185878,4.0337352 L -2.2072895,0.016013256 L 8.7185884,-4.0017078 C 6.97309,-1.6296469 6.9831476,1.6157441 8.7185878,4.0337352 z"
         transform="scale(-0.6,-0.6)"
         id="path12216"
         style="font-size:12px;fill:#ff0000;fill-rule:evenodd;stroke:#ff0000;stroke-width:0.625;stroke-linejoin:round" />
    </marker>
  </defs>
  <g
     transform="translate(-249.19998,-279.5284)"
     id="layer1">
    <path
       d="M 608.57143,325.93362 A 218.21428,65.714287 0 1 1 172.14287,325.93362 A 218.21428,65.714287 0 1 1 608.57143,325.93362 z"
       transform="matrix(0.616954,0,0,0.7565071,164.22549,133.87533)"
       id="path6664"
       style="opacity:1;fill:none;fill-opacity:1;fill-rule:nonzero;stroke:#000000;stroke-width:3.60007381;stroke-linecap:square;stroke-linejoin:round;stroke-miterlimit:11.5;stroke-dasharray:14.40029539, 14.40029539;stroke-dashoffset:9.00018462;stroke-opacity:0.64655175" />
    <g
       transform="matrix(0.6174958,0,0,0.6174958,166.48398,184.64386)"
       id="g6659">
      <path
         d="M 316.17774,314.95084 A 43.436558,43.436558 0 1 1 229.30462,314.95084 A 43.436558,43.436558 0 1 1 316.17774,314.95084 z"
         transform="translate(119.198,-3.0304576)"
         id="path3155"
         style="opacity:1;fill:url(#linearGradient3171);fill-opacity:1;fill-rule:nonzero;stroke:#ce0000;stroke-width:1.199;stroke-linecap:round;stroke-linejoin:round;stroke-miterlimit:4;stroke-dasharray:none;stroke-dashoffset:0;stroke-opacity:1" />
      <path
         d="M 376.30274,228.57116 L 391.93918,186.0491 L 407.57561,228.57117 C 398.34387,221.77792 385.71324,221.81706 376.30274,228.57116 z"
         id="path6092"
         style="font-size:12px;fill-rule:evenodd;stroke-width:0.625;stroke-linejoin:round" />
      <path
         d="M 388.75,194.625 L 388.75,280.23214 C 389.80719,280.155 390.84246,280.07589 391.9375,280.07589 C 393.03253,280.07589 394.15768,280.14973 395.25,280.23214 L 395.25,194.625 L 388.75,194.625 z M 388.75,355.21875 L 388.75,389.95982 L 395.25,389.95982 L 395.25,355.21875 C 394.15768,355.30116 393.05079,355.34375 391.9375,355.34375 C 390.86073,355.34375 389.80719,355.29589 388.75,355.21875 z"
         id="path3191"
         style="fill:#000000;fill-opacity:1;fill-rule:evenodd;stroke:none;stroke-width:6.48644495;stroke-linecap:butt;stroke-linejoin:miter;stroke-miterlimit:11.5;stroke-dasharray:none;stroke-opacity:1" />
    </g>
    <g
       transform="matrix(0.6174958,0,0,0.6174958,170.37792,187.85025)"
       id="g6652">
      <path
         d="M 592.22988,266.49492 L 599.52551,246.65503 L 606.82114,266.49492 C 602.5138,263.32533 596.62062,263.34359 592.22988,266.49492 z"
         id="path6643"
         style="font-size:12px;fill-rule:evenodd;stroke-width:0.625;stroke-linejoin:round" />
      <path
         d="M 614.17272,303.33408 A 14.647212,14.647212 0 1 1 584.8783,303.33408 A 14.647212,14.647212 0 1 1 614.17272,303.33408 z"
         id="path3173"
         style="opacity:1;fill:url(#linearGradient6666);fill-opacity:1;fill-rule:nonzero;stroke:#000000;stroke-width:1.09099996;stroke-linecap:round;stroke-linejoin:round;stroke-miterlimit:4;stroke-dasharray:none;stroke-dashoffset:0;stroke-opacity:1" />
      <path
         d="M 598.03125,250.65625 L 598.03125,293.88393 C 598.52345,293.83389 599.02592,293.82143 599.53125,293.82143 C 600.04724,293.82143 600.56023,293.83179 601.0625,293.88393 L 601.0625,250.65625 L 598.03125,250.65625 z M 598.03125,317.90625 L 598.03125,338.96875 L 601.0625,338.96875 L 601.0625,317.90625 C 600.56016,317.95841 600.04732,317.96875 599.53125,317.96875 C 599.02592,317.96875 598.52345,317.95629 598.03125,317.90625 z"
         id="path6110"
         style="fill:#000000;fill-opacity:1;fill-rule:evenodd;stroke:none;stroke-width:3.02643728px;stroke-linecap:butt;stroke-linejoin:miter;stroke-opacity:1" />
    </g>
    <path
       d="M 608.57143,325.93362 A 218.21428,65.714287 0 1 1 172.14287,325.93362 A 218.21428,65.714287 0 1 1 608.57143,325.93362 z"
       transform="matrix(0.616954,0,0,0.7565071,164.22549,303.83085)"
       id="path6678"
       style="opacity:1;fill:none;fill-opacity:1;fill-rule:nonzero;stroke:#000000;stroke-width:3.60000014;stroke-linecap:square;stroke-linejoin:round;stroke-miterlimit:11.5;stroke-dasharray:14.40000059, 14.40000059;stroke-dashoffset:9.36000038;stroke-opacity:0.64655175" />
    <g
       transform="matrix(0.6174958,0,0,0.6174958,166.48398,354.59936)"
       id="g6680">
      <path
         d="M 316.17774,314.95084 A 43.436558,43.436558 0 1 1 229.30462,314.95084 A 43.436558,43.436558 0 1 1 316.17774,314.95084 z"
         transform="translate(119.198,-3.0304576)"
         id="path6682"
         style="opacity:1;fill:url(#linearGradient6704);fill-opacity:1;fill-rule:nonzero;stroke:#ce0000;stroke-width:1.199;stroke-linecap:round;stroke-linejoin:round;stroke-miterlimit:4;stroke-dasharray:none;stroke-dashoffset:0;stroke-opacity:1" />
      <path
         d="M 376.30274,228.57116 L 391.93918,186.0491 L 407.57561,228.57117 C 398.34387,221.77792 385.71324,221.81706 376.30274,228.57116 z"
         id="path6684"
         style="font-size:12px;fill-rule:evenodd;stroke-width:0.625;stroke-linejoin:round" />
      <path
         d="M 388.75,194.625 L 388.75,280.23214 C 389.80719,280.155 390.84246,280.07589 391.9375,280.07589 C 393.03253,280.07589 394.15768,280.14973 395.25,280.23214 L 395.25,194.625 L 388.75,194.625 z M 388.75,355.21875 L 388.75,389.95982 L 395.25,389.95982 L 395.25,355.21875 C 394.15768,355.30116 393.05079,355.34375 391.9375,355.34375 C 390.86073,355.34375 389.80719,355.29589 388.75,355.21875 z"
         id="path6686"
         style="fill:#000000;fill-opacity:1;fill-rule:evenodd;stroke:none;stroke-width:6.48644495;stroke-linecap:butt;stroke-linejoin:miter;stroke-miterlimit:11.5;stroke-dasharray:none;stroke-opacity:1" />
    </g>
    <g
       transform="matrix(0.6174958,0,0,0.6174958,166.48398,184.64386)"
       id="g6715">
      <path
         d="M 614.17272,303.33408 A 14.647212,14.647212 0 1 1 584.8783,303.33408 A 14.647212,14.647212 0 1 1 614.17272,303.33408 z"
         transform="translate(6.3060194,280.42603)"
         id="path6692"
         style="fill:url(#linearGradient6721);fill-opacity:1;fill-rule:nonzero;stroke:#000000;stroke-width:1.09099996;stroke-linecap:round;stroke-linejoin:round;stroke-miterlimit:4;stroke-dasharray:none;stroke-dashoffset:0;stroke-opacity:1" />
      <g
         transform="matrix(1,0,0,-1,0,1172.4758)"
         id="g6711">
        <path
           d="M 598.5359,556.92095 L 605.83153,537.08106 L 613.12716,556.92095 C 608.81982,553.75136 602.92664,553.76962 598.5359,556.92095 z"
           id="path6690"
           style="font-size:12px;fill-rule:evenodd;stroke-width:0.625;stroke-linejoin:round" />
        <path
           d="M 604.33727,542.33228 L 604.33727,574.30996 C 604.82947,574.25992 605.33194,574.24746 605.83727,574.24746 C 606.35326,574.24746 606.86625,574.25782 607.36852,574.30996 L 607.36852,542.33228 L 604.33727,542.33228 z M 604.33727,598.33228 L 604.33727,629.32127 L 607.36852,629.32127 L 607.36852,598.33228 C 606.86618,598.38444 606.35334,598.39478 605.83727,598.39478 C 605.33194,598.39478 604.82947,598.38232 604.33727,598.33228 z"
           id="path6694"
           style="fill:#000000;fill-opacity:1;fill-rule:evenodd;stroke:none;stroke-width:3.02643728px;stroke-linecap:butt;stroke-linejoin:miter;stroke-opacity:1" />
      </g>
    </g>
    <path
       d="M 438.67922,534.12485 L 440.28936,533.98407 C 440.36561,534.62931 440.54305,535.15869 440.82167,535.57222 C 441.10029,535.98575 441.53289,536.3201 442.11946,536.57526 C 442.70603,536.83042 443.36592,536.958 444.09914,536.95799 C 444.75023,536.958 445.32507,536.86121 445.82367,536.66764 C 446.32224,536.47407 446.69325,536.20865 446.93669,535.87137 C 447.1801,535.53409 447.30182,535.16602 447.30183,534.76715 C 447.30182,534.36242 447.1845,534.00901 446.94988,533.70692 C 446.71525,533.40484 446.32811,533.15115 445.78847,532.94584 C 445.44239,532.81094 444.67691,532.60124 443.49204,532.31674 C 442.30716,532.03226 441.47716,531.76391 441.00204,531.51167 C 440.38614,531.18907 439.92715,530.78873 439.62507,530.31067 C 439.32298,529.83262 439.17194,529.29737 439.17194,528.70493 C 439.17194,528.05384 439.35671,527.44528 439.72625,526.87922 C 440.09579,526.31319 440.63543,525.88353 441.34519,525.59023 C 442.05494,525.29696 442.84388,525.15032 443.71201,525.1503 C 444.66811,525.15032 445.51131,525.30429 446.2416,525.61223 C 446.97187,525.92019 447.53351,526.37332 447.92653,526.97161 C 448.31952,527.56992 448.53068,528.24741 448.56002,529.00408 L 446.92349,529.12726 C 446.83549,528.31193 446.53781,527.69603 446.03043,527.27956 C 445.52304,526.8631 444.77369,526.65487 443.7824,526.65486 C 442.75002,526.65487 441.99775,526.84404 441.52556,527.22237 C 441.05337,527.60072 440.81727,528.05678 440.81727,528.59055 C 440.81727,529.05395 440.98444,529.43522 441.31879,529.73436 C 441.64727,530.03352 442.50513,530.34 443.89238,530.65381 C 445.27961,530.96764 446.23132,531.24186 446.74752,531.47648 C 447.49832,531.82256 448.05263,532.26103 448.41045,532.79187 C 448.76825,533.32272 448.94715,533.93422 448.94716,534.62637 C 448.94715,535.31266 448.75065,535.95936 448.35766,536.56646 C 447.96464,537.17356 447.40007,537.64575 446.66393,537.98303 C 445.92777,538.32031 445.09924,538.48895 444.17833,538.48895 C 443.01105,538.48895 442.03294,538.31884 441.24401,537.97863 C 440.45506,537.63842 439.83623,537.12663 439.38751,536.44328 C 438.93878,535.75992 438.70268,534.98712 438.67922,534.12485 L 438.67922,534.12485 z M 451.09401,541.85 L 451.09401,528.92489 L 452.53698,528.92489 L 452.53698,530.1391 C 452.87719,529.66398 453.26139,529.30764 453.68959,529.07007 C 454.11779,528.83252 454.6369,528.71374 455.24694,528.71373 C 456.04467,528.71374 456.74856,528.91904 457.3586,529.32963 C 457.96863,529.74024 458.42909,530.31947 458.73998,531.06735 C 459.05085,531.81523 459.20629,532.63496 459.2063,533.52655 C 459.20629,534.48266 459.03472,535.34346 458.69159,536.10893 C 458.34843,536.87441 457.84985,537.46098 457.19583,537.86865 C 456.54179,538.27631 455.85404,538.48015 455.13256,538.48015 C 454.60464,538.48015 454.13098,538.3687 453.71159,538.1458 C 453.29219,537.9229 452.94758,537.64135 452.67776,537.30114 L 452.67776,541.85 L 451.09401,541.85 z M 452.52818,533.64973 C 452.52818,534.8522 452.77161,535.74086 453.25846,536.3157 C 453.74531,536.89054 454.33482,537.17796 455.02698,537.17796 C 455.73086,537.17796 456.33356,536.88027 456.83509,536.2849 C 457.3366,535.68953 457.58736,534.76715 457.58736,533.51775 C 457.58736,532.32701 457.34246,531.43543 456.85268,530.84298 C 456.36289,530.25055 455.77778,529.95433 455.09737,529.95433 C 454.4228,529.95433 453.82597,530.26962 453.30686,530.90017 C 452.78774,531.53074 452.52818,532.44726 452.52818,533.64973 L 452.52818,533.64973 z M 461.13319,527.19157 L 461.13319,525.37027 L 462.71694,525.37027 L 462.71694,527.19157 L 461.13319,527.19157 z M 461.13319,538.26898 L 461.13319,528.92489 L 462.71694,528.92489 L 462.71694,538.26898 L 461.13319,538.26898 z M 465.13654,538.26898 L 465.13654,528.92489 L 466.56191,528.92489 L 466.56191,530.25348 C 467.2482,529.22699 468.2395,528.71374 469.53583,528.71373 C 470.09893,528.71374 470.61658,528.81492 471.08878,529.01728 C 471.56096,529.21965 471.91437,529.48508 472.14901,529.81355 C 472.38363,530.14204 472.54787,530.53211 472.64173,530.98376 C 472.70038,531.27705 472.72971,531.7903 472.72971,532.52351 L 472.72971,538.26898 L 471.14597,538.26898 L 471.14597,532.5851 C 471.14596,531.93988 471.08437,531.45742 470.9612,531.13773 C 470.83801,530.81806 470.61952,530.5629 470.30571,530.37226 C 469.99188,530.18163 469.62381,530.08631 469.20149,530.0863 C 468.52692,530.08631 467.94475,530.30041 467.45497,530.7286 C 466.96518,531.15681 466.72028,531.96921 466.72029,533.16581 L 466.72029,538.26898 L 465.13654,538.26898 z M 474.55102,534.39761 L 474.55102,532.80507 L 479.41664,532.80507 L 479.41664,534.39761 L 474.55102,534.39761 z M 481.4755,538.26898 L 481.4755,525.37027 L 490.1773,525.37027 L 490.1773,526.89242 L 483.18243,526.89242 L 483.18243,530.88698 L 489.23585,530.88698 L 489.23585,532.40913 L 483.18243,532.40913 L 483.18243,538.26898 L 481.4755,538.26898 z M 492.16577,538.26898 L 492.16577,525.37027 L 493.74952,525.37027 L 493.74952,538.26898 L 492.16577,538.26898 z M 496.22192,527.19157 L 496.22192,525.37027 L 497.80566,525.37027 L 497.80566,527.19157 L 496.22192,527.19157 z M 496.22192,538.26898 L 496.22192,528.92489 L 497.80566,528.92489 L 497.80566,538.26898 L 496.22192,538.26898 z M 500.22527,541.85 L 500.22527,528.92489 L 501.66824,528.92489 L 501.66824,530.1391 C 502.00845,529.66398 502.39265,529.30764 502.82085,529.07007 C 503.24905,528.83252 503.76816,528.71374 504.3782,528.71373 C 505.17593,528.71374 505.87982,528.91904 506.48986,529.32963 C 507.09989,529.74024 507.56034,530.31947 507.87124,531.06735 C 508.18211,531.81523 508.33755,532.63496 508.33756,533.52655 C 508.33755,534.48266 508.16598,535.34346 507.82284,536.10893 C 507.47969,536.87441 506.98111,537.46098 506.32709,537.86865 C 505.67305,538.27631 504.9853,538.48015 504.26382,538.48015 C 503.7359,538.48015 503.26224,538.3687 502.84285,538.1458 C 502.42345,537.9229 502.07884,537.64135 501.80902,537.30114 L 501.80902,541.85 L 500.22527,541.85 z M 501.65944,533.64973 C 501.65944,534.8522 501.90286,535.74086 502.38972,536.3157 C 502.87657,536.89054 503.46608,537.17796 504.15824,537.17796 C 504.86212,537.17796 505.46482,536.88027 505.96634,536.2849 C 506.46786,535.68953 506.71861,534.76715 506.71862,533.51775 C 506.71861,532.32701 506.47372,531.43543 505.98394,530.84298 C 505.49415,530.25055 504.90904,529.95433 504.22863,529.95433 C 503.55406,529.95433 502.95723,530.26962 502.43811,530.90017 C 501.919,531.53074 501.65944,532.44726 501.65944,533.64973 L 501.65944,533.64973 z"
       id="text6723"
       style="font-size:8.19067574px;font-style:normal;font-variant:normal;font-weight:normal;font-stretch:normal;text-align:start;text-anchor:start;fill:#d21010;fill-opacity:1;stroke:none;stroke-width:1px;stroke-linecap:butt;stroke-linejoin:miter;stroke-opacity:1;font-family:Arial;-inkscape-font-specification:Arial" />
    <path
       d="M 532.703,523.649 C 509.62881,528.88725 504.75136,551.50957 527.401,561.13982"
       id="path6737"
       style="fill:none;fill-rule:evenodd;stroke:#d21010;stroke-width:1.29674101;stroke-linecap:butt;stroke-linejoin:miter;marker-end:url(#Arrow2MendR);stroke-miterlimit:4;stroke-dasharray:none;stroke-opacity:1" />
    <path
       d="M 552.68803,535.5909 C 554.18653,533.99358 558.99336,535.19033 558.57402,531.90119 C 558.01996,524.84577 559.52284,523.62468 563.61312,528.74235 C 567.7034,533.86002 570.70693,532.64584 568.65223,525.5835 C 566.59753,518.52117 568.26218,517.45005 573.69134,522.42466 C 579.12051,527.39927 581.23662,526.0224 578.73046,519.26582 C 576.2243,512.50923 579.18799,512.19081 583.76956,516.10696 C 588.35112,520.02311 589.65555,517.72155 588.80868,512.94813 C 587.9618,508.1747 591.02718,507.88544 594.2275,509.55124 C 596.70148,510.0916 600.25156,506.55002 602.09076,505.33522"
       id="path8869"
       style="fill:none;fill-rule:evenodd;stroke:#ff0000;stroke-width:1.17324197;stroke-linecap:butt;stroke-linejoin:miter;marker-end:url(#Arrow2MendN);stroke-miterlimit:4;stroke-dasharray:none;stroke-opacity:1" />
    <g
       transform="matrix(3.057074,0,0,-3.057074,-397.09827,2654.6865)"
       id="g2490"
       xml:space="preserve"
       style="font-style:normal;font-variant:normal;font-weight:normal;font-stretch:normal;letter-spacing:normal;word-spacing:normal;text-anchor:start;fill:none;fill-opacity:1;fill-rule:evenodd;stroke:#000000;stroke-linecap:butt;stroke-linejoin:miter;stroke-miterlimit:10.43299961;stroke-dasharray:none;stroke-dashoffset:0;stroke-opacity:1">
<path
   d="M 226.45,710.36 L 227.42,710.36 C 228.16,710.36 228.24,710.2 228.24,709.91 C 228.24,709.84 228.24,709.72 228.18,709.42 C 228.15,709.37 228.15,709.33 228.15,709.31 C 228.15,709.23 228.21,709.2 228.26,709.2 C 228.36,709.2 228.36,709.22 228.41,709.4 L 228.96,711.57 C 228.99,711.67 228.99,711.7 228.99,711.72 C 228.99,711.74 228.97,711.84 228.87,711.84 C 228.77,711.84 228.76,711.78 228.72,711.63 C 228.51,710.85 228.28,710.67 227.44,710.67 L 226.53,710.67 L 227.17,713.2 C 227.26,713.55 227.27,713.59 227.71,713.59 L 229.02,713.59 C 230.25,713.59 230.48,713.26 230.48,712.49 C 230.48,712.26 230.48,712.22 230.45,711.95 C 230.43,711.83 230.43,711.8 230.43,711.78 C 230.43,711.72 230.46,711.66 230.55,711.66 C 230.65,711.66 230.66,711.72 230.68,711.91 L 230.88,713.63 C 230.91,713.9 230.87,713.9 230.62,713.9 L 225.73,713.9 C 225.54,713.9 225.43,713.9 225.43,713.7 C 225.43,713.59 225.52,713.59 225.71,713.59 C 226.08,713.59 226.36,713.59 226.36,713.41 C 226.36,713.37 226.36,713.35 226.31,713.17 L 225,707.9 C 224.9,707.51 224.88,707.43 224.09,707.43 C 223.92,707.43 223.81,707.43 223.81,707.24 C 223.81,707.12 223.93,707.12 223.96,707.12 C 224.25,707.12 224.99,707.15 225.28,707.15 C 225.6,707.15 226.43,707.12 226.76,707.12 C 226.85,707.12 226.97,707.12 226.97,707.31 C 226.97,707.39 226.91,707.41 226.91,707.42 C 226.88,707.43 226.86,707.43 226.63,707.43 C 226.41,707.43 226.36,707.43 226.11,707.45 C 225.82,707.48 225.79,707.52 225.79,707.65 C 225.79,707.67 225.79,707.73 225.83,707.88 L 226.45,710.36 z"
   id="path2492"
   style="fill:#000000;stroke-width:0" />
<path
   d="M 240.84,710.38 L 240.87,710.38 L 240.89,710.38 L 240.92,710.38 L 240.94,710.38 L 240.95,710.38 L 240.97,710.38 L 240.98,710.39 L 241,710.39 L 241.01,710.39 L 241.02,710.39 L 241.04,710.4 L 241.05,710.4 L 241.06,710.41 L 241.07,710.41 L 241.09,710.42 L 241.1,710.42 L 241.11,710.43 L 241.12,710.44 L 241.13,710.44 L 241.14,710.45 L 241.14,710.46 L 241.15,710.47 L 241.15,710.48 L 241.15,710.48 L 241.16,710.49 L 241.16,710.49 L 241.16,710.5 L 241.17,710.51 L 241.17,710.51 L 241.17,710.52 L 241.17,710.53 L 241.17,710.54 L 241.17,710.54 L 241.17,710.55 L 241.18,710.56 L 241.18,710.57 L 241.18,710.58 C 241.18,710.78 240.99,710.78 240.85,710.78 L 234.88,710.78 C 234.74,710.78 234.55,710.78 234.55,710.58 C 234.55,710.38 234.74,710.38 234.89,710.38 L 240.84,710.38 z"
   id="path2494"
   style="fill:#000000;stroke-width:0" />
<path
   d="M 240.85,708.45 L 240.86,708.45 L 240.87,708.45 L 240.9,708.45 L 240.93,708.45 L 240.94,708.45 L 240.96,708.45 L 240.97,708.45 L 240.98,708.45 L 241,708.46 L 241.01,708.46 L 241.03,708.46 L 241.04,708.46 L 241.05,708.47 L 241.06,708.47 L 241.08,708.48 L 241.09,708.48 L 241.1,708.49 L 241.11,708.5 L 241.12,708.5 L 241.13,708.51 L 241.14,708.52 L 241.14,708.53 L 241.14,708.53 L 241.15,708.54 L 241.15,708.54 L 241.15,708.55 L 241.16,708.55 L 241.16,708.56 L 241.16,708.57 L 241.17,708.57 L 241.17,708.58 L 241.17,708.59 L 241.17,708.6 L 241.17,708.6 L 241.17,708.61 L 241.17,708.62 L 241.18,708.63 L 241.18,708.64 L 241.18,708.65 C 241.18,708.85 240.99,708.85 240.84,708.85 L 234.89,708.85 C 234.74,708.85 234.55,708.85 234.55,708.65 C 234.55,708.45 234.74,708.45 234.88,708.45 L 240.85,708.45 z"
   id="path2496"
   style="fill:#000000;stroke-width:0" />
<path
   d="M 249.09,710.31 L 249.09,710.46 L 249.09,710.61 L 249.08,710.76 L 249.08,710.91 L 249.07,711.06 L 249.06,711.2 L 249.04,711.35 L 249.02,711.5 L 249,711.65 L 248.97,711.79 L 248.94,711.94 L 248.9,712.08 L 248.86,712.22 L 248.81,712.36 L 248.75,712.5 L 248.72,712.57 L 248.69,712.64 C 248.23,713.6 247.42,713.76 247,713.76 C 246.4,713.76 245.67,713.5 245.26,712.57 C 244.95,711.89 244.9,711.11 244.9,710.31 C 244.9,709.56 244.94,708.67 245.34,707.91 C 245.77,707.1 246.5,706.9 246.99,706.9 L 246.99,707.12 C 246.6,707.12 246.01,707.37 245.83,708.33 C 245.72,708.93 245.72,709.84 245.72,710.43 C 245.72,711.07 245.72,711.72 245.8,712.26 C 245.99,713.45 246.74,713.54 246.99,713.54 C 247.32,713.54 247.98,713.36 248.16,712.37 C 248.26,711.82 248.26,711.06 248.26,710.43 C 248.26,709.68 248.26,709.01 248.15,708.37 C 248,707.42 247.44,707.12 246.99,707.12 L 246.99,707.12 L 246.99,706.9 C 247.53,706.9 248.28,707.11 248.72,708.06 C 249.04,708.75 249.09,709.52 249.09,710.31 z"
   id="path2498"
   style="fill:#000000;stroke-width:0" />
</g>    <g
       transform="matrix(3.057074,0,0,-3.057074,-397.09827,2482.2506)"
       id="g2624"
       xml:space="preserve"
       style="font-style:normal;font-variant:normal;font-weight:normal;font-stretch:normal;letter-spacing:normal;word-spacing:normal;text-anchor:start;fill:none;fill-opacity:1;fill-rule:evenodd;stroke:#000000;stroke-linecap:butt;stroke-linejoin:miter;stroke-miterlimit:10.43299961;stroke-dasharray:none;stroke-dashoffset:0;stroke-opacity:1">
<path
   d="M 226.45,710.36 L 227.42,710.36 C 228.16,710.36 228.24,710.2 228.24,709.91 C 228.24,709.84 228.24,709.72 228.18,709.42 C 228.15,709.37 228.15,709.33 228.15,709.31 C 228.15,709.23 228.21,709.2 228.26,709.2 C 228.36,709.2 228.36,709.22 228.41,709.4 L 228.96,711.57 C 228.99,711.67 228.99,711.7 228.99,711.72 C 228.99,711.74 228.97,711.84 228.87,711.84 C 228.77,711.84 228.76,711.78 228.72,711.63 C 228.51,710.85 228.28,710.67 227.44,710.67 L 226.53,710.67 L 227.17,713.2 C 227.26,713.55 227.27,713.59 227.71,713.59 L 229.02,713.59 C 230.25,713.59 230.48,713.26 230.48,712.49 C 230.48,712.26 230.48,712.22 230.45,711.95 C 230.43,711.83 230.43,711.8 230.43,711.78 C 230.43,711.72 230.46,711.66 230.55,711.66 C 230.65,711.66 230.66,711.72 230.68,711.91 L 230.88,713.63 C 230.91,713.9 230.87,713.9 230.62,713.9 L 225.73,713.9 C 225.54,713.9 225.43,713.9 225.43,713.7 C 225.43,713.59 225.52,713.59 225.71,713.59 C 226.08,713.59 226.36,713.59 226.36,713.41 C 226.36,713.37 226.36,713.35 226.31,713.17 L 225,707.9 C 224.9,707.51 224.88,707.43 224.09,707.43 C 223.92,707.43 223.81,707.43 223.81,707.24 C 223.81,707.12 223.93,707.12 223.96,707.12 C 224.25,707.12 224.99,707.15 225.28,707.15 C 225.6,707.15 226.43,707.12 226.76,707.12 C 226.85,707.12 226.97,707.12 226.97,707.31 C 226.97,707.39 226.91,707.41 226.91,707.42 C 226.88,707.43 226.86,707.43 226.63,707.43 C 226.41,707.43 226.36,707.43 226.11,707.45 C 225.82,707.48 225.79,707.52 225.79,707.65 C 225.79,707.67 225.79,707.73 225.83,707.88 L 226.45,710.36 z"
   id="path2626"
   style="fill:#000000;stroke-width:0" />
<path
   d="M 240.84,710.38 L 240.87,710.38 L 240.89,710.38 L 240.92,710.38 L 240.94,710.38 L 240.95,710.38 L 240.97,710.38 L 240.98,710.39 L 241,710.39 L 241.01,710.39 L 241.02,710.39 L 241.04,710.4 L 241.05,710.4 L 241.06,710.41 L 241.07,710.41 L 241.09,710.42 L 241.1,710.42 L 241.11,710.43 L 241.12,710.44 L 241.13,710.44 L 241.14,710.45 L 241.14,710.46 L 241.15,710.47 L 241.15,710.48 L 241.15,710.48 L 241.16,710.49 L 241.16,710.49 L 241.16,710.5 L 241.17,710.51 L 241.17,710.51 L 241.17,710.52 L 241.17,710.53 L 241.17,710.54 L 241.17,710.54 L 241.17,710.55 L 241.18,710.56 L 241.18,710.57 L 241.18,710.58 C 241.18,710.78 240.99,710.78 240.85,710.78 L 234.88,710.78 C 234.74,710.78 234.55,710.78 234.55,710.58 C 234.55,710.38 234.74,710.38 234.89,710.38 L 240.84,710.38 z"
   id="path2628"
   style="fill:#000000;stroke-width:0" />
<path
   d="M 240.85,708.45 L 240.86,708.45 L 240.87,708.45 L 240.9,708.45 L 240.93,708.45 L 240.94,708.45 L 240.96,708.45 L 240.97,708.45 L 240.98,708.45 L 241,708.46 L 241.01,708.46 L 241.03,708.46 L 241.04,708.46 L 241.05,708.47 L 241.06,708.47 L 241.08,708.48 L 241.09,708.48 L 241.1,708.49 L 241.11,708.5 L 241.12,708.5 L 241.13,708.51 L 241.14,708.52 L 241.14,708.53 L 241.14,708.53 L 241.15,708.54 L 241.15,708.54 L 241.15,708.55 L 241.16,708.55 L 241.16,708.56 L 241.16,708.57 L 241.17,708.57 L 241.17,708.58 L 241.17,708.59 L 241.17,708.6 L 241.17,708.6 L 241.17,708.61 L 241.17,708.62 L 241.18,708.63 L 241.18,708.64 L 241.18,708.65 C 241.18,708.85 240.99,708.85 240.84,708.85 L 234.89,708.85 C 234.74,708.85 234.55,708.85 234.55,708.65 C 234.55,708.45 234.74,708.45 234.88,708.45 L 240.85,708.45 z"
   id="path2630"
   style="fill:#000000;stroke-width:0" />
<path
   d="M 247.44,713.5 L 247.44,713.51 L 247.44,713.52 L 247.44,713.53 L 247.44,713.54 L 247.44,713.55 L 247.44,713.56 L 247.44,713.57 L 247.44,713.58 L 247.44,713.59 L 247.44,713.6 L 247.44,713.6 L 247.44,713.61 L 247.44,713.62 L 247.43,713.63 L 247.43,713.63 L 247.43,713.64 L 247.43,713.65 L 247.43,713.65 L 247.43,713.66 L 247.43,713.68 L 247.42,713.69 L 247.42,713.7 L 247.42,713.7 L 247.41,713.71 L 247.41,713.72 L 247.4,713.72 L 247.4,713.73 L 247.39,713.73 L 247.38,713.74 L 247.37,713.74 L 247.37,713.74 L 247.36,713.75 L 247.36,713.75 L 247.35,713.75 L 247.35,713.75 L 247.34,713.75 L 247.33,713.75 L 247.33,713.75 L 247.32,713.75 L 247.31,713.75 L 247.31,713.76 L 247.3,713.76 L 247.29,713.76 L 247.28,713.76 L 247.27,713.76 L 247.27,713.76 L 247.26,713.76 L 247.25,713.76 L 247.24,713.76 L 247.23,713.76 L 247.22,713.76 L 247.21,713.76 C 246.59,713.12 245.71,713.12 245.39,713.12 L 245.39,712.81 C 245.59,712.81 246.18,712.81 246.7,713.07 L 246.7,707.91 C 246.7,707.55 246.67,707.43 245.77,707.43 L 245.45,707.43 L 245.45,707.12 C 245.8,707.15 246.67,707.15 247.07,707.15 C 247.47,707.15 248.33,707.15 248.68,707.12 L 248.68,707.43 L 248.36,707.43 C 247.47,707.43 247.44,707.54 247.44,707.91 L 247.44,713.5 z"
   id="path2632"
   style="fill:#000000;stroke-width:0" />
</g>    <g
       transform="matrix(1.8580679,0,0,-1.8580679,58.238689,1788.6445)"
       id="g3132"
       xml:space="preserve"
       style="font-style:normal;font-variant:normal;font-weight:normal;font-stretch:normal;letter-spacing:normal;word-spacing:normal;text-anchor:start;fill:none;fill-opacity:1;fill-rule:evenodd;stroke:#000000;stroke-linecap:butt;stroke-linejoin:miter;stroke-miterlimit:10.43299961;stroke-dasharray:none;stroke-dashoffset:0;stroke-opacity:1">
<path
   d="M 227.09,711.11 L 227.95,711.11 C 228.15,711.11 228.24,711.11 228.24,711.31 C 228.24,711.42 228.15,711.42 227.98,711.42 L 227.15,711.42 C 227.26,711.99 227.25,711.97 227.36,712.55 C 227.4,712.76 227.54,713.47 227.6,713.59 C 227.69,713.78 227.86,713.93 228.07,713.93 C 228.1,713.93 228.36,713.93 228.55,713.75 C 228.12,713.71 228.01,713.36 228.01,713.21 C 228.01,712.98 228.2,712.86 228.38,712.86 C 228.64,712.86 228.93,713.08 228.93,713.46 C 228.93,713.92 228.47,714.15 228.07,714.15 C 227.73,714.15 227.1,713.97 226.8,712.98 C 226.74,712.77 226.71,712.67 226.47,711.42 L 225.78,711.42 C 225.59,711.42 225.49,711.42 225.49,711.23 C 225.49,711.11 225.57,711.11 225.76,711.11 L 226.42,711.11 L 225.67,707.17 C 225.49,706.21 225.32,705.3 224.81,705.3 C 224.77,705.3 224.52,705.3 224.33,705.48 C 224.79,705.51 224.88,705.87 224.88,706.02 C 224.88,706.25 224.7,706.36 224.51,706.36 C 224.25,706.36 223.96,706.15 223.96,705.77 C 223.96,705.32 224.4,705.08 224.81,705.08 C 225.35,705.08 225.75,705.67 225.93,706.05 C 226.25,706.67 226.48,707.88 226.49,707.95 L 227.09,711.11 z"
   id="path3134"
   style="fill:#000000;stroke-width:0" />
<path
   d="M 231.91,707.85 L 231.9,708 L 231.9,708.13 L 231.9,708.26 L 231.89,708.39 L 231.88,708.52 L 231.86,708.63 L 231.84,708.75 L 231.82,708.86 L 231.8,708.97 L 231.77,709.08 L 231.73,709.18 L 231.69,709.28 L 231.65,709.38 L 231.6,709.47 L 231.55,709.57 L 231.52,709.62 L 231.49,709.66 C 231.28,709.98 230.85,710.26 230.29,710.26 C 228.67,710.26 228.67,708.36 228.67,707.85 C 228.67,707.35 228.67,705.49 230.29,705.49 L 230.29,705.69 C 229.97,705.69 229.54,705.87 229.4,706.45 C 229.3,706.86 229.3,707.43 229.3,707.95 C 229.3,708.45 229.3,708.98 229.41,709.37 C 229.56,709.92 230,710.07 230.29,710.07 C 230.66,710.07 231.03,709.84 231.15,709.43 C 231.26,709.05 231.27,708.55 231.27,707.95 C 231.27,707.43 231.27,706.91 231.18,706.47 C 231.04,705.84 230.57,705.69 230.29,705.69 L 230.29,705.69 L 230.29,705.49 C 231.91,705.49 231.91,707.35 231.91,707.85 z"
   id="path3136"
   style="fill:#000000;stroke-width:0" />
<path
   d="M 242.39,710.38 L 242.42,710.38 L 242.45,710.38 L 242.48,710.38 L 242.49,710.38 L 242.51,710.38 L 242.52,710.38 L 242.53,710.39 L 242.55,710.39 L 242.56,710.39 L 242.58,710.39 L 242.59,710.4 L 242.6,710.4 L 242.61,710.41 L 242.63,710.41 L 242.64,710.42 L 242.65,710.42 L 242.66,710.43 L 242.67,710.44 L 242.68,710.44 L 242.69,710.45 L 242.7,710.46 L 242.7,710.47 L 242.7,710.48 L 242.71,710.48 L 242.71,710.49 L 242.71,710.49 L 242.72,710.5 L 242.72,710.51 L 242.72,710.51 L 242.72,710.52 L 242.72,710.53 L 242.72,710.54 L 242.73,710.54 L 242.73,710.55 L 242.73,710.56 L 242.73,710.57 L 242.73,710.58 C 242.73,710.78 242.54,710.78 242.4,710.78 L 236.43,710.78 C 236.29,710.78 236.1,710.78 236.1,710.58 C 236.1,710.38 236.29,710.38 236.44,710.38 L 242.39,710.38 z"
   id="path3138"
   style="fill:#000000;stroke-width:0" />
<path
   d="M 242.4,708.45 L 242.43,708.45 L 242.45,708.45 L 242.48,708.45 L 242.5,708.45 L 242.51,708.45 L 242.52,708.45 L 242.54,708.45 L 242.55,708.46 L 242.56,708.46 L 242.58,708.46 L 242.59,708.46 L 242.6,708.47 L 242.62,708.47 L 242.63,708.48 L 242.64,708.48 L 242.65,708.49 L 242.66,708.5 L 242.67,708.5 L 242.68,708.51 L 242.69,708.52 L 242.69,708.53 L 242.7,708.53 L 242.7,708.54 L 242.7,708.54 L 242.71,708.55 L 242.71,708.55 L 242.71,708.56 L 242.72,708.57 L 242.72,708.57 L 242.72,708.58 L 242.72,708.59 L 242.72,708.6 L 242.72,708.6 L 242.73,708.61 L 242.73,708.62 L 242.73,708.63 L 242.73,708.64 L 242.73,708.65 C 242.73,708.85 242.54,708.85 242.39,708.85 L 236.44,708.85 C 236.29,708.85 236.1,708.85 236.1,708.65 C 236.1,708.45 236.29,708.45 236.43,708.45 L 242.4,708.45 z"
   id="path3140"
   style="fill:#000000;stroke-width:0" />
<path
   d="M 249,713.5 L 249,713.51 L 249,713.52 L 249,713.53 L 249,713.54 L 249,713.55 L 249,713.56 L 249,713.57 L 249,713.58 L 249,713.59 L 249,713.6 L 249,713.6 L 249,713.61 L 249,713.62 L 248.99,713.63 L 248.99,713.63 L 248.99,713.64 L 248.99,713.65 L 248.99,713.65 L 248.99,713.66 L 248.99,713.68 L 248.98,713.69 L 248.98,713.7 L 248.98,713.7 L 248.97,713.71 L 248.97,713.72 L 248.96,713.72 L 248.96,713.73 L 248.95,713.73 L 248.94,713.74 L 248.93,713.74 L 248.93,713.74 L 248.92,713.75 L 248.92,713.75 L 248.91,713.75 L 248.91,713.75 L 248.9,713.75 L 248.89,713.75 L 248.89,713.75 L 248.88,713.75 L 248.87,713.75 L 248.87,713.76 L 248.86,713.76 L 248.85,713.76 L 248.84,713.76 L 248.83,713.76 L 248.83,713.76 L 248.82,713.76 L 248.81,713.76 L 248.8,713.76 L 248.79,713.76 L 248.78,713.76 L 248.77,713.76 C 248.15,713.12 247.27,713.12 246.95,713.12 L 246.95,712.81 C 247.15,712.81 247.74,712.81 248.26,713.07 L 248.26,707.91 C 248.26,707.55 248.23,707.43 247.33,707.43 L 247.01,707.43 L 247.01,707.12 C 247.36,707.15 248.23,707.15 248.63,707.15 C 249.03,707.15 249.89,707.15 250.24,707.12 L 250.24,707.43 L 249.92,707.43 C 249.03,707.43 249,707.54 249,707.91 L 249,713.5 z"
   id="path3142"
   style="fill:#000000;stroke-width:0" />
<path
   d="M 251.33,708.77 L 253.98,708.77 L 253.98,707.9 C 253.98,707.54 253.96,707.43 253.22,707.43 L 253.01,707.43 L 253.01,707.12 C 253.42,707.15 253.94,707.15 254.35,707.15 C 254.77,707.15 255.3,707.15 255.71,707.12 L 255.71,707.43 L 255.5,707.43 C 254.76,707.43 254.74,707.54 254.74,707.9 L 254.74,708.77 L 255.74,708.77 L 255.74,709.08 L 254.74,709.08 L 254.74,713.61 C 254.74,713.81 254.74,713.87 254.58,713.87 C 254.49,713.87 254.46,713.87 254.38,713.75 L 251.33,709.08 L 251.6,709.08 L 254.04,712.79 L 254.04,709.08 L 251.6,709.08 L 251.33,709.08 L 251.33,708.77 z"
   id="path3144"
   style="fill:#000000;stroke-width:0" />
<path
   d="M 260.5,708.86 L 260.25,708.86 C 260.2,708.56 260.13,708.12 260.03,707.97 C 259.96,707.89 259.3,707.89 259.09,707.89 L 257.29,707.89 L 258.35,708.92 C 259.9,710.29 260.5,710.83 260.5,711.83 C 260.5,712.96 259.6,713.76 258.39,713.76 C 257.26,713.76 256.53,712.84 256.53,711.95 C 256.53,711.4 257.02,711.4 257.05,711.4 C 257.22,711.4 257.57,711.52 257.57,711.92 C 257.57,712.18 257.39,712.44 257.04,712.44 C 256.96,712.44 256.94,712.44 256.91,712.43 C 257.14,713.08 257.68,713.45 258.26,713.45 C 259.17,713.45 259.59,712.64 259.59,711.83 C 259.59,711.03 259.1,710.24 258.55,709.62 L 256.64,707.49 C 256.53,707.38 256.53,707.36 256.53,707.12 L 260.22,707.12 L 260.5,708.86 z"
   id="path3146"
   style="fill:#000000;stroke-width:0" />
<path
   d="M 265.59,710.31 L 265.59,710.46 L 265.59,710.61 L 265.58,710.76 L 265.58,710.91 L 265.57,711.06 L 265.56,711.2 L 265.54,711.35 L 265.52,711.5 L 265.5,711.65 L 265.47,711.79 L 265.44,711.94 L 265.4,712.08 L 265.36,712.22 L 265.31,712.36 L 265.25,712.5 L 265.22,712.57 L 265.19,712.64 C 264.73,713.6 263.92,713.76 263.5,713.76 C 262.9,713.76 262.17,713.5 261.77,712.57 C 261.45,711.89 261.4,711.11 261.4,710.31 C 261.4,709.56 261.44,708.67 261.84,707.91 C 262.27,707.1 263,706.9 263.49,706.9 L 263.49,707.12 C 263.1,707.12 262.51,707.37 262.33,708.33 C 262.22,708.93 262.22,709.84 262.22,710.43 C 262.22,711.07 262.22,711.72 262.3,712.26 C 262.49,713.45 263.24,713.54 263.49,713.54 C 263.82,713.54 264.47,713.36 264.66,712.37 C 264.76,711.82 264.76,711.06 264.76,710.43 C 264.76,709.68 264.76,709.01 264.65,708.37 C 264.5,707.42 263.94,707.12 263.49,707.12 L 263.49,707.12 L 263.49,706.9 C 264.03,706.9 264.78,707.11 265.22,708.06 C 265.54,708.75 265.59,709.52 265.59,710.31 z"
   id="path3148"
   style="fill:#000000;stroke-width:0" />
<path
   d="M 271.71,713.71 L 271.71,713.72 L 271.7,713.73 L 271.7,713.74 L 271.69,713.75 L 271.69,713.76 L 271.68,713.78 L 271.67,713.8 L 271.66,713.81 L 271.66,713.82 L 271.65,713.83 L 271.64,713.85 L 271.64,713.86 L 271.63,713.87 L 271.62,713.87 L 271.61,713.88 L 271.61,713.89 L 271.6,713.89 L 271.59,713.9 L 271.58,713.9 L 271.57,713.91 L 271.56,713.91 L 271.55,713.92 L 271.54,713.92 L 271.53,713.92 L 271.51,713.92 L 271.5,713.92 L 271.49,713.92 L 271.47,713.93 L 271.46,713.93 L 271.44,713.93 L 271.42,713.93 L 271.4,713.93 L 271.38,713.93 L 271.36,713.93 L 269.68,713.93 L 269.68,713.62 L 269.92,713.62 C 270.68,713.62 270.7,713.51 270.7,713.15 L 270.7,708.17 C 270.7,707.9 270.7,707.43 269.68,707.43 L 269.68,707.12 C 270.03,707.13 270.52,707.15 270.84,707.15 C 271.17,707.15 271.66,707.13 272.01,707.12 L 272.01,707.43 C 270.98,707.43 270.98,707.9 270.98,708.17 L 270.98,713.54 L 270.99,713.54 L 273.39,707.34 C 273.44,707.21 273.49,707.12 273.59,707.12 C 273.7,707.12 273.73,707.2 273.77,707.31 L 276.22,713.62 L 276.23,713.62 L 276.23,707.9 C 276.23,707.54 276.21,707.43 275.45,707.43 L 275.21,707.43 L 275.21,707.12 C 275.58,707.15 276.25,707.15 276.64,707.15 C 277.03,707.15 277.7,707.15 278.07,707.12 L 278.07,707.43 L 277.83,707.43 C 277.06,707.43 277.04,707.54 277.04,707.9 L 277.04,713.15 C 277.04,713.51 277.06,713.62 277.83,713.62 L 278.07,713.62 L 278.07,713.93 L 276.38,713.93 C 276.12,713.93 276.12,713.92 276.05,713.74 L 273.87,708.13 L 271.71,713.71 z"
   id="path3150"
   style="fill:#000000;stroke-width:0" />
<path
   d="M 284.55,713.15 L 284.55,713.18 L 284.55,713.21 L 284.55,713.24 L 284.55,713.27 L 284.55,713.3 L 284.55,713.33 L 284.56,713.35 L 284.56,713.37 L 284.57,713.4 L 284.57,713.42 L 284.58,713.44 L 284.59,713.46 L 284.6,713.47 L 284.62,713.49 L 284.63,713.5 L 284.65,713.52 L 284.67,713.53 L 284.69,713.54 L 284.71,713.55 L 284.72,713.55 L 284.73,713.56 L 284.75,713.56 L 284.76,713.57 L 284.78,713.57 L 284.79,713.58 L 284.81,713.58 L 284.83,713.59 L 284.85,713.59 L 284.87,713.59 L 284.89,713.6 L 284.91,713.6 L 284.93,713.6 L 284.95,713.6 L 284.97,713.61 L 285,713.61 L 285.02,713.61 L 285.05,713.61 L 285.08,713.61 L 285.11,713.61 L 285.14,713.61 L 285.17,713.62 L 285.2,713.62 L 285.23,713.62 L 285.26,713.62 L 285.3,713.62 L 285.33,713.62 L 285.57,713.62 L 285.57,713.93 C 285.22,713.9 284.48,713.9 284.11,713.9 C 283.73,713.9 282.98,713.9 282.63,713.93 L 282.63,713.62 L 282.87,713.62 C 283.64,713.62 283.66,713.51 283.66,713.15 L 283.66,710.82 L 280.68,710.82 L 280.68,713.15 C 280.68,713.51 280.7,713.62 281.47,713.62 L 281.7,713.62 L 281.7,713.93 C 281.36,713.9 280.62,713.9 280.24,713.9 C 279.86,713.9 279.11,713.9 278.77,713.93 L 278.77,713.62 L 279.01,713.62 C 279.77,713.62 279.79,713.51 279.79,713.15 L 279.79,707.9 C 279.79,707.54 279.77,707.43 279.01,707.43 L 278.77,707.43 L 278.77,707.12 C 279.11,707.15 279.85,707.15 280.23,707.15 C 280.61,707.15 281.36,707.15 281.7,707.12 L 281.7,707.43 L 281.47,707.43 C 280.7,707.43 280.68,707.54 280.68,707.9 L 280.68,710.51 L 283.66,710.51 L 283.66,707.9 C 283.66,707.54 283.64,707.43 282.87,707.43 L 282.63,707.43 L 282.63,707.12 C 282.98,707.15 283.72,707.15 284.1,707.15 C 284.48,707.15 285.22,707.15 285.57,707.12 L 285.57,707.43 L 285.33,707.43 C 284.57,707.43 284.55,707.54 284.55,707.9 L 284.55,713.15 z"
   id="path3152"
   style="fill:#000000;stroke-width:0" />
<path
   d="M 289.8,711.12 L 289.8,711.12 L 289.81,711.13 L 289.81,711.13 L 289.82,711.14 L 289.82,711.14 L 289.82,711.15 L 289.83,711.15 L 289.83,711.15 L 289.83,711.16 L 289.84,711.16 L 289.84,711.17 L 289.84,711.17 L 289.84,711.17 L 289.85,711.18 L 289.85,711.18 L 289.86,711.19 L 289.86,711.2 L 289.86,711.2 L 289.87,711.21 L 289.87,711.21 L 289.87,711.22 L 289.88,711.22 L 289.88,711.23 L 289.88,711.23 L 289.88,711.24 L 289.88,711.24 L 289.89,711.24 L 289.89,711.25 L 289.89,711.25 L 289.89,711.26 L 289.89,711.26 L 289.89,711.27 L 289.89,711.27 L 289.89,711.28 L 289.89,711.29 C 289.89,711.42 289.81,711.42 289.63,711.42 L 286.44,711.42 L 286.33,709.81 L 286.58,709.81 C 286.64,710.83 286.83,711.2 287.93,711.2 L 289.06,711.2 L 286.28,707.44 C 286.19,707.33 286.19,707.31 286.19,707.26 C 286.19,707.12 286.26,707.12 286.45,707.12 L 289.74,707.12 L 289.91,708.99 L 289.66,708.99 C 289.57,707.81 289.36,707.37 288.21,707.37 L 287.03,707.37 L 289.8,711.12 z"
   id="path3154"
   style="fill:#000000;stroke-width:0" />
<path
   d="M 226.99,698.08 L 227.03,697.98 L 227.07,697.88 L 227.14,697.67 L 227.22,697.45 L 227.3,697.23 L 227.38,697.01 L 227.46,696.79 L 227.53,696.58 L 227.57,696.47 L 227.61,696.37 L 227.64,696.27 L 227.68,696.17 L 227.71,696.08 L 227.74,695.99 L 227.77,695.9 L 227.8,695.82 L 227.83,695.74 L 227.86,695.66 L 227.89,695.59 L 227.91,695.53 L 227.94,695.47 L 227.96,695.42 L 227.98,695.37 L 228,695.33 L 228.02,695.3 L 228.04,695.28 C 228.2,695.06 228.29,695.06 228.56,695.06 L 228.78,695.06 C 228.88,695.07 228.89,695.13 228.89,695.16 C 228.89,695.19 228.87,695.21 228.84,695.25 C 228.74,695.36 228.68,695.51 228.61,695.71 L 226.58,701.37 C 226.37,701.95 225.83,702.08 225.37,702.08 C 225.32,702.08 225.19,702.08 225.19,701.97 C 225.19,701.89 225.27,701.87 225.28,701.87 C 225.6,701.81 225.67,701.75 225.92,701.08 C 226.18,700.36 226.73,698.83 226.89,698.37 L 224.14,695.64 C 224.02,695.52 223.96,695.46 223.96,695.33 C 223.96,695.16 224.1,695.04 224.26,695.04 C 224.42,695.04 224.51,695.15 224.59,695.25 L 226.99,698.08 z"
   id="path3156"
   style="fill:#000000;stroke-width:0" />
<path
   d="M 232.84,695.9 L 232.84,696.04 L 232.84,696.18 L 232.83,696.31 L 232.82,696.44 L 232.81,696.56 L 232.8,696.68 L 232.78,696.8 L 232.76,696.91 L 232.73,697.02 L 232.7,697.12 L 232.67,697.23 L 232.63,697.33 L 232.59,697.42 L 232.54,697.52 L 232.49,697.61 L 232.46,697.66 L 232.43,697.71 C 232.22,698.03 231.78,698.31 231.23,698.31 C 229.61,698.31 229.61,696.4 229.61,695.9 C 229.61,695.4 229.61,693.54 231.23,693.54 L 231.23,693.73 C 230.9,693.73 230.48,693.92 230.34,694.49 C 230.24,694.9 230.24,695.47 230.24,695.99 C 230.24,696.5 230.24,697.03 230.35,697.41 C 230.49,697.96 230.94,698.11 231.23,698.11 C 231.6,698.11 231.96,697.88 232.09,697.48 C 232.2,697.1 232.21,696.6 232.21,695.99 C 232.21,695.47 232.21,694.96 232.12,694.52 C 231.98,693.88 231.51,693.73 231.23,693.73 L 231.23,693.73 L 231.23,693.54 C 232.84,693.54 232.84,695.4 232.84,695.9 z"
   id="path3158"
   style="fill:#000000;stroke-width:0" />
<path
   d="M 243.33,698.42 L 243.36,698.43 L 243.38,698.43 L 243.41,698.43 L 243.43,698.43 L 243.44,698.43 L 243.46,698.43 L 243.47,698.43 L 243.49,698.43 L 243.5,698.44 L 243.51,698.44 L 243.53,698.44 L 243.54,698.45 L 243.55,698.45 L 243.56,698.45 L 243.58,698.46 L 243.59,698.47 L 243.6,698.47 L 243.61,698.48 L 243.62,698.49 L 243.63,698.5 L 243.63,698.51 L 243.64,698.51 L 243.64,698.52 L 243.64,698.53 L 243.65,698.53 L 243.65,698.54 L 243.65,698.55 L 243.66,698.55 L 243.66,698.56 L 243.66,698.57 L 243.66,698.57 L 243.66,698.58 L 243.66,698.59 L 243.66,698.6 L 243.67,698.61 L 243.67,698.62 L 243.67,698.63 C 243.67,698.82 243.48,698.82 243.34,698.82 L 237.37,698.82 C 237.23,698.82 237.04,698.82 237.04,698.63 C 237.04,698.42 237.23,698.42 237.38,698.42 L 243.33,698.42 z"
   id="path3160"
   style="fill:#000000;stroke-width:0" />
<path
   d="M 243.34,696.49 L 243.35,696.49 L 243.36,696.49 L 243.39,696.49 L 243.42,696.49 L 243.43,696.5 L 243.45,696.5 L 243.46,696.5 L 243.47,696.5 L 243.49,696.5 L 243.5,696.5 L 243.52,696.51 L 243.53,696.51 L 243.54,696.51 L 243.55,696.52 L 243.57,696.52 L 243.58,696.53 L 243.59,696.53 L 243.6,696.54 L 243.61,696.55 L 243.62,696.56 L 243.63,696.57 L 243.63,696.57 L 243.63,696.58 L 243.64,696.58 L 243.64,696.59 L 243.64,696.59 L 243.65,696.6 L 243.65,696.61 L 243.65,696.61 L 243.66,696.62 L 243.66,696.63 L 243.66,696.63 L 243.66,696.64 L 243.66,696.65 L 243.66,696.66 L 243.66,696.67 L 243.67,696.67 L 243.67,696.68 L 243.67,696.69 C 243.67,696.89 243.48,696.89 243.33,696.89 L 237.38,696.89 C 237.23,696.89 237.04,696.89 237.04,696.69 C 237.04,696.49 237.23,696.49 237.37,696.49 L 243.34,696.49 z"
   id="path3162"
   style="fill:#000000;stroke-width:0" />
<path
   d="M 251.47,696.9 L 251.22,696.9 C 251.17,696.6 251.1,696.16 251,696.01 C 250.93,695.93 250.27,695.93 250.06,695.93 L 248.26,695.93 L 249.32,696.96 C 250.87,698.34 251.47,698.87 251.47,699.87 C 251.47,701.01 250.57,701.8 249.36,701.8 C 248.23,701.8 247.5,700.89 247.5,700 C 247.5,699.44 247.99,699.44 248.02,699.44 C 248.19,699.44 248.54,699.56 248.54,699.97 C 248.54,700.23 248.36,700.49 248.01,700.49 C 247.93,700.49 247.91,700.49 247.88,700.48 C 248.11,701.13 248.65,701.49 249.23,701.49 C 250.14,701.49 250.56,700.69 250.56,699.87 C 250.56,699.07 250.07,698.29 249.52,697.67 L 247.6,695.54 C 247.5,695.43 247.5,695.41 247.5,695.17 L 251.19,695.17 L 251.47,696.9 z"
   id="path3164"
   style="fill:#000000;stroke-width:0" />
<path
   d="M 254.91,701.54 L 254.91,701.56 L 254.91,701.57 L 254.91,701.58 L 254.91,701.59 L 254.91,701.6 L 254.91,701.61 L 254.91,701.61 L 254.91,701.62 L 254.91,701.63 L 254.91,701.64 L 254.91,701.65 L 254.91,701.66 L 254.91,701.66 L 254.9,701.67 L 254.9,701.68 L 254.9,701.69 L 254.9,701.69 L 254.9,701.7 L 254.9,701.71 L 254.9,701.72 L 254.89,701.73 L 254.89,701.74 L 254.89,701.75 L 254.88,701.76 L 254.88,701.76 L 254.87,701.77 L 254.87,701.77 L 254.86,701.78 L 254.85,701.78 L 254.84,701.79 L 254.84,701.79 L 254.83,701.79 L 254.83,701.79 L 254.82,701.79 L 254.82,701.8 L 254.81,701.8 L 254.8,701.8 L 254.8,701.8 L 254.79,701.8 L 254.78,701.8 L 254.78,701.8 L 254.77,701.8 L 254.76,701.8 L 254.75,701.8 L 254.74,701.8 L 254.74,701.8 L 254.73,701.8 L 254.72,701.8 L 254.71,701.8 L 254.7,701.8 L 254.69,701.8 L 254.68,701.8 C 254.06,701.16 253.18,701.16 252.86,701.16 L 252.86,700.86 C 253.06,700.86 253.65,700.86 254.17,701.11 L 254.17,695.96 C 254.17,695.6 254.14,695.48 253.24,695.48 L 252.92,695.48 L 252.92,695.17 C 253.27,695.2 254.14,695.2 254.54,695.2 C 254.94,695.2 255.8,695.2 256.15,695.17 L 256.15,695.48 L 255.83,695.48 C 254.94,695.48 254.91,695.59 254.91,695.96 L 254.91,701.54 z"
   id="path3166"
   style="fill:#000000;stroke-width:0" />
<path
   d="M 263.86,699.01 L 263.84,699.01 L 263.82,699.01 L 263.8,699.01 L 263.78,699 L 263.77,699 L 263.75,699 L 263.73,698.99 L 263.72,698.99 L 263.7,698.99 L 263.69,698.98 L 263.68,698.98 L 263.66,698.97 L 263.65,698.97 L 263.64,698.96 L 263.61,698.95 L 263.59,698.93 L 263.57,698.92 L 263.55,698.9 L 263.53,698.89 L 263.51,698.87 L 263.5,698.86 L 263.48,698.84 L 263.47,698.82 L 263.46,698.8 L 263.45,698.79 L 263.44,698.77 L 263.43,698.75 L 263.42,698.73 L 263.41,698.71 L 263.41,698.69 L 263.4,698.68 L 263.4,698.66 L 263.4,698.64 L 263.39,698.63 L 263.39,698.61 L 263.39,698.6 L 263.39,698.58 L 263.39,698.57 L 263.39,698.55 C 263.39,698.3 263.57,698.1 263.85,698.1 C 264.11,698.1 264.3,698.27 264.3,698.57 C 264.3,699.24 263.55,699.63 262.78,699.63 C 261.54,699.63 260.62,698.55 260.62,697.32 C 260.62,696.04 261.61,695.06 262.76,695.06 C 264.1,695.06 264.41,696.25 264.41,696.35 C 264.41,696.45 264.32,696.45 264.29,696.45 C 264.2,696.45 264.17,696.41 264.15,696.35 C 263.87,695.43 263.22,695.31 262.85,695.31 C 262.32,695.31 261.45,695.73 261.45,697.34 C 261.45,698.96 262.26,699.38 262.79,699.38 C 262.88,699.38 263.51,699.37 263.86,699.01 z"
   id="path3168"
   style="fill:#000000;stroke-width:0" />
<path
   d="M 265.8,698.59 L 265.8,695.92 C 265.8,695.48 265.69,695.48 265.02,695.48 L 265.02,695.17 C 265.37,695.18 265.88,695.2 266.15,695.2 C 266.41,695.2 266.93,695.18 267.27,695.17 L 267.27,695.48 C 266.6,695.48 266.49,695.48 266.49,695.92 L 266.49,697.76 C 266.49,698.79 267.2,699.35 267.83,699.35 C 268.46,699.35 268.57,698.81 268.57,698.25 L 268.57,695.92 C 268.57,695.48 268.46,695.48 267.79,695.48 L 267.79,695.17 C 268.14,695.18 268.65,695.2 268.92,695.2 C 269.18,695.2 269.7,695.18 270.04,695.17 L 270.04,695.48 C 269.37,695.48 269.26,695.48 269.26,695.92 L 269.26,697.76 C 269.26,698.79 269.96,699.35 270.6,699.35 C 271.23,699.35 271.34,698.81 271.34,698.25 L 271.34,695.92 C 271.34,695.48 271.23,695.48 270.56,695.48 L 270.56,695.17 C 270.91,695.18 271.42,695.2 271.69,695.2 C 271.95,695.2 272.47,695.18 272.8,695.17 L 272.8,695.48 C 272.29,695.48 272.04,695.48 272.03,695.78 L 272.03,697.68 C 272.03,698.53 272.03,698.84 271.72,699.2 C 271.58,699.37 271.25,699.57 270.67,699.57 C 269.84,699.57 269.4,698.97 269.23,698.59 C 269.09,699.46 268.35,699.57 267.9,699.57 C 267.18,699.57 266.71,699.14 266.43,698.53 L 266.43,699.57 L 265.02,699.46 L 265.02,699.15 C 265.72,699.15 265.8,699.08 265.8,698.59 z"
   id="path3170"
   style="fill:#000000;stroke-width:0" />
</g>  </g>
</svg>
